<svg width="811" height="180" viewBox="0 0 811 180" fill="none" xmlns="http://www.w3.org/2000/svg">
<path d="M185.634 75.5148C180.947 70.8288 173.35 70.8288 168.664 75.5148C163.976 80.2008 163.976 87.7992 168.664 92.4852C173.35 97.1712 180.947 97.1712 185.634 92.4852C190.32 87.7992 190.32 80.2008 185.634 75.5148Z" fill="#22D3EE"/>
<path d="M194.119 50.0587C198.805 45.3724 206.404 45.3724 211.09 50.0587C215.776 54.745 215.776 62.3424 211.09 67.0296C206.404 71.7156 198.805 71.7156 194.119 67.0296C189.433 62.3424 189.433 54.745 194.119 50.0587Z" fill="#22D3EE"/>
<path d="M236.545 75.5148C231.859 70.8288 224.262 70.8288 219.575 75.5148C214.889 80.2008 214.889 87.7992 219.575 92.4852C224.262 97.1712 231.859 97.1712 236.545 92.4852C241.232 87.7992 241.232 80.2008 236.545 75.5148Z" fill="#22D3EE"/>
<path d="M194.119 100.97C198.805 96.2844 206.404 96.2844 211.09 100.97C215.776 105.658 215.776 113.255 211.09 117.941C206.404 122.628 198.805 122.628 194.119 117.941C189.433 113.255 189.433 105.658 194.119 100.97Z" fill="#22D3EE"/>
<path d="M72 96H48V72H72V48H96V72H120V96H96V120H72V96Z" fill="#22D3EE"/>
<path fill-rule="evenodd" clip-rule="evenodd" d="M84 0C37.6081 0 0 37.6081 0 84C0 130.392 37.6081 168 84 168H204C250.392 168 288 130.392 288 84C288 37.6081 250.392 0 204 0H84ZM204 24H84C50.863 24 24 50.863 24 84C24 117.137 50.863 144 84 144H204C237.137 144 264 117.137 264 84C264 50.863 237.137 24 204 24Z" fill="#22D3EE"/>
<path d="M392.57 147.04C383.163 147.04 374.493 145.567 366.56 142.62C358.74 139.56 351.883 135.253 345.99 129.7C340.21 124.147 335.677 117.63 332.39 110.15C329.217 102.67 327.63 94.4533 327.63 85.5C327.63 76.5467 329.217 68.33 332.39 60.85C335.677 53.37 340.267 46.8533 346.16 41.3C352.053 35.7467 358.967 31.4967 366.9 28.55C374.833 25.49 383.56 23.96 393.08 23.96C403.62 23.96 413.083 25.7167 421.47 29.23C429.97 32.7433 437.11 37.8433 442.89 44.53L425.21 60.85C420.903 56.3167 416.2 52.9733 411.1 50.82C406 48.5533 400.447 47.42 394.44 47.42C388.66 47.42 383.39 48.3267 378.63 50.14C373.87 51.9533 369.733 54.56 366.22 57.96C362.82 61.36 360.157 65.3833 358.23 70.03C356.417 74.6767 355.51 79.8333 355.51 85.5C355.51 91.0533 356.417 96.1533 358.23 100.8C360.157 105.447 362.82 109.527 366.22 113.04C369.733 116.44 373.813 119.047 378.46 120.86C383.22 122.673 388.433 123.58 394.1 123.58C399.54 123.58 404.81 122.73 409.91 121.03C415.123 119.217 420.167 116.213 425.04 112.02L440.68 131.91C434.22 136.783 426.683 140.523 418.07 143.13C409.57 145.737 401.07 147.04 392.57 147.04ZM415.52 128.34V83.63H440.68V131.91L415.52 128.34Z" fill="#22D3EE"/>
<path d="M507.912 146.36C498.166 146.36 489.496 144.32 481.902 140.24C474.422 136.16 468.472 130.607 464.052 123.58C459.746 116.44 457.592 108.337 457.592 99.27C457.592 90.09 459.746 81.9867 464.052 74.96C468.472 67.82 474.422 62.2667 481.902 58.3C489.496 54.22 498.166 52.18 507.912 52.18C517.546 52.18 526.159 54.22 533.752 58.3C541.346 62.2667 547.296 67.7633 551.602 74.79C555.909 81.8167 558.062 89.9767 558.062 99.27C558.062 108.337 555.909 116.44 551.602 123.58C547.296 130.607 541.346 136.16 533.752 140.24C526.159 144.32 517.546 146.36 507.912 146.36ZM507.912 124.6C512.332 124.6 516.299 123.58 519.812 121.54C523.326 119.5 526.102 116.61 528.142 112.87C530.182 109.017 531.202 104.483 531.202 99.27C531.202 93.9433 530.182 89.41 528.142 85.67C526.102 81.93 523.326 79.04 519.812 77C516.299 74.96 512.332 73.94 507.912 73.94C503.492 73.94 499.526 74.96 496.012 77C492.499 79.04 489.666 81.93 487.512 85.67C485.472 89.41 484.452 93.9433 484.452 99.27C484.452 104.483 485.472 109.017 487.512 112.87C489.666 116.61 492.499 119.5 496.012 121.54C499.526 123.58 503.492 124.6 507.912 124.6Z" fill="#22D3EE"/>
<path d="M613.189 146.36C602.422 146.36 594.035 143.64 588.029 138.2C582.022 132.647 579.019 124.43 579.019 113.55V33.31H605.539V113.21C605.539 117.063 606.559 120.067 608.599 122.22C610.639 124.26 613.416 125.28 616.929 125.28C621.122 125.28 624.692 124.147 627.639 121.88L634.779 140.58C632.059 142.507 628.772 143.98 624.919 145C621.179 145.907 617.269 146.36 613.189 146.36ZM564.909 75.98V55.58H628.319V75.98H564.909Z" fill="#22D3EE"/>
<path d="M685.074 146.36C674.307 146.36 665.92 143.64 659.914 138.2C653.907 132.647 650.904 124.43 650.904 113.55V33.31H677.424V113.21C677.424 117.063 678.444 120.067 680.484 122.22C682.524 124.26 685.3 125.28 688.814 125.28C693.007 125.28 696.577 124.147 699.524 121.88L706.664 140.58C703.944 142.507 700.657 143.98 696.804 145C693.064 145.907 689.154 146.36 685.074 146.36ZM636.794 75.98V55.58H700.204V75.98H636.794Z" fill="#22D3EE"/>
<path d="M731.45 179.34C726.69 179.34 721.987 178.603 717.34 177.13C712.694 175.657 708.897 173.617 705.95 171.01L715.64 152.14C717.68 153.953 720.004 155.37 722.61 156.39C725.33 157.41 727.994 157.92 730.6 157.92C734.34 157.92 737.287 157.013 739.44 155.2C741.707 153.5 743.747 150.61 745.56 146.53L750.32 135.31L752.36 132.42L785.17 53.54H810.67L769.36 150.61C766.414 157.977 763.014 163.757 759.16 167.95C755.42 172.143 751.227 175.09 746.58 176.79C742.047 178.49 737.004 179.34 731.45 179.34ZM747.09 148.57L706.29 53.54H733.66L765.28 130.04L747.09 148.57Z" fill="#22D3EE"/>
</svg>
